<svg width="20" height="20" viewBox="0 0 20 20" fill="none" xmlns="http://www.w3.org/2000/svg">
    <path fill-rule="evenodd" clip-rule="evenodd" d="M4.31016 10C4.31016 9.35047 4.41797 8.72766 4.61063 8.14359L1.24031 5.57C0.58344 6.90359 0.21344 8.40641 0.21344 10C0.21344 11.5923 0.583127 13.0941 1.23891 14.4269L4.60735 11.8483C4.41656 11.2669 4.31016 10.6464 4.31016 10Z" fill="#FBBC05"></path>
    <path fill-rule="evenodd" clip-rule="evenodd" d="M10.2276 4.09094C11.6387 4.09094 12.9133 4.59094 13.9147 5.40906L16.8278 2.5C15.0526 0.954531 12.7767 0 10.2276 0C6.27014 0 2.86889 2.26312 1.2403 5.57L4.61045 8.14359C5.38701 5.78641 7.60061 4.09094 10.2276 4.09094Z" fill="#EA4335"></path>
    <path fill-rule="evenodd" clip-rule="evenodd" d="M10.2276 15.9091C7.60076 15.9091 5.38717 14.2136 4.61061 11.8564L1.2403 14.4295C2.86889 17.7369 6.27014 20 10.2276 20C12.6701 20 15.0022 19.1327 16.7523 17.5077L13.5533 15.0345C12.6506 15.6031 11.5139 15.9091 10.2276 15.9091Z" fill="#34A853"></path>
    <path fill-rule="evenodd" clip-rule="evenodd" d="M19.7866 10C19.7866 9.40906 19.6955 8.77266 19.5589 8.18188H10.2277V12.0455H15.5989C15.3303 13.3628 14.5994 14.3755 13.5533 15.0345L16.7523 17.5077C18.5908 15.8014 19.7866 13.2595 19.7866 10Z" fill="#4285F4"></path>
</svg>